<svg id="Bear" xmlns="http://www.w3.org/2000/svg" viewBox="0 0 256 256">
  <title>bear</title>
  <circle id="left-ear" cx="43.91" cy="49.24" r="34.6" fill="#673200"/>
  <circle id="inner-left-ear" cx="46.36" cy="58" r="14.84" fill="#ffaaca"/>
  <circle id="right-ear" cx="212.09" cy="49.24" r="34.6" fill="#673200"/>
  <circle id="inner-right-ear" cx="209.64" cy="58" r="14.84" fill="#ffaaca"/>
  <circle id="face" cx="128" cy="133.23" r="108.13" fill="#673200"/>
  <circle id="around-mouth" cx="128" cy="172.72" r="42.32" fill="#c65b00"/>
  <path id="around-right-eye" d="M174,35.36a65.61,65.61,0,0,0,61,113.25A108.14,108.14,0,0,0,174,35.36Z" fill="#c65b00"/>
  <path id="around-left-eye" d="M19.87,133.23A108.44,108.44,0,0,0,21,148.61,65.61,65.61,0,0,0,82,35.36,108.13,108.13,0,0,0,19.87,133.23Z" fill="#c65b00"/>
  <path id="mouth" d="M101.25,187.09a37.22,37.22,0,0,0,52.69,0" fill="none" stroke="#000" stroke-linecap="round" stroke-linejoin="round" stroke-width="3"/>
  <circle id="nose" cx="128" cy="138.09" r="12.96" fill="#ffaaca"/>
  <circle id="left-eye" cx="84.77" cy="106.5" r="9.31"/>
  <circle id="right-eye" cx="171.23" cy="106.5" r="9.31"/>
</svg>
